<svg xmlns="http://www.w3.org/2000/svg" viewBox="0 0 147.1 146.8">
<path d="M140 59l-5-5c-2-2-3-3-2-6V39v-1c0-12-10-21-21-22h-11c-2 0-4 0-6-3l-7-7c-4-3-9-5-15-5-5 0-10 2-14 6-3 1-5 3-6 5-3 4-5 5-9 4h-9a25 25 0 00-21 33v1c0 2 0 3-2 5l-5 5-1 2a26 26 0 00-2 29c1 4 4 7 7 10l3 3-1 4c0 15 12 26 26 26h6c3-1 5 0 7 2 3 4 6 7 10 9a22 22 0 0023-1c4-1 8-4 10-8l6-3 6 1c15 0 26-11 26-25v-3c0-2 1-4 3-5l7-9c2-4 4-9 4-14 0-7-2-13-7-18zm-29-9l-37 55c-2 2-3 4-5 4-4 0-6-1-8-3L42 86c-3-3-4-7-1-10s7-3 10 1l13 12c2 2 3 2 4-1l31-46c3-4 6-6 11-3 4 3 3 7 1 11z" fill="#1da0f1"/>
<path d="M110 39c-4-3-8-1-11 3L68 89c-1 2-2 2-4 0L51 77c-3-4-7-4-10-1s-2 7 1 10l20 20c1 2 3 3 7 3 2 0 3-2 5-4l37-55c2-4 3-8-1-11z" fill="#fefefe"/>
</svg>